<svg xmlns="http://www.w3.org/2000/svg" width="21.445" height="20.023" viewBox="0 0 21.445 20.023">
    <defs>
        <style>
            .cls-1{fill:#343434}
        </style>
    </defs>
    <g id="cupom" transform="translate(0 -16.97)">
        <path id="Caminho_5191" d="M184.788 97.776a.628.628 0 1 0 .433-.724.628.628 0 0 0-.433.724z" class="cls-1" transform="translate(-177.036 -76.702)"/>
        <path id="Caminho_5192" d="M21.287 29.849c-3.419-9.951-3.183-9.269-3.2-9.3a3.209 3.209 0 0 0-1.9-1.757c-.122-.042-7-1.652-7.2-1.72a2.115 2.115 0 0 0-2.052.454l-5.9 5.426A3.243 3.243 0 0 0 0 25.331v9.609a2.05 2.05 0 0 0 2.043 2.054h12.616a2.05 2.05 0 0 0 2.041-2.055v-.929l3.516-1.5a2.041 2.041 0 0 0 1.069-2.657zm-6.628 5.887H2.043a.793.793 0 0 1-.786-.8v-9.605a1.984 1.984 0 0 1 .637-1.457c5.052-4.649 1.929-1.749 5.917-5.427a.8.8 0 0 1 .78-.183c.255.076-.195-.29 6.217 5.609a1.984 1.984 0 0 1 .637 1.457v9.609a.793.793 0 0 1-.786.8zm5.062-4.385L16.7 32.644v-7.313a3.243 3.243 0 0 0-1.043-2.381l-4.392-4.041 4.545 1.078a1.951 1.951 0 0 1 1.115 1.037c3.412 9.932 3.182 9.266 3.2 9.3a.782.782 0 0 1-.4 1.028z" class="cls-1"/>
        <path id="Caminho_5193" d="M152.047 201.174a.628.628 0 0 0-.822.336l-3.059 7.29a.628.628 0 1 0 1.159.486l3.059-7.29a.628.628 0 0 0-.337-.822z" class="cls-1" transform="translate(-141.913 -176.441)"/>
        <path id="Caminho_5194" d="M81.087 195.216a1.991 1.991 0 1 0-1.98 2.2 2.1 2.1 0 0 0 1.98-2.2zm-1.98.943a.976.976 0 1 1 .723-.943.867.867 0 0 1-.722.943z" class="cls-1" transform="translate(-73.897 -168.673)"/>
        <path id="Caminho_5195" d="M230.465 312.011a2.211 2.211 0 1 0 1.98 2.2 2.1 2.1 0 0 0-1.98-2.2zm0 3.142a.976.976 0 1 1 .723-.943.867.867 0 0 1-.723.943z" class="cls-1" transform="translate(-218.915 -282.683)"/>
    </g>
</svg>
