<svg xmlns="http://www.w3.org/2000/svg" id="Componente_192_1" width="313.763" height="410.479" viewBox="0 0 313.763 410.479">
    <defs>
        <style>
            .cls-1{fill:#61c8b6}.cls-2{fill:#ef6b59}.cls-3{fill:#5ec24d}.cls-9{fill:#469600}.cls-6{fill:#5bf900}.cls-7{fill:#fff}.cls-8{fill:#033454}.cls-13{fill:#2f2f2f}.cls-14{fill:#232744}
        </style>
    </defs>
    <g id="Grupo_2903">
        <g id="Grupo_2876" transform="rotate(-167 142.605 163.919)">
            <g id="Grupo_2557">
                <path id="Caminho_4674" d="M18.585 2.06a76.531 76.531 0 0 1 7.632 10.411c1.506 2.286 4.385 5.293 3.9 8.713a5.174 5.174 0 0 1-5 4.349c-4.06.249-8.4-1.39-12.042-2.624A65.683 65.683 0 0 1 .78 17.247a1.69 1.69 0 0 1-.71-1.967c-.318-1.65.474-3.426 1.851-5.129C4.434 7.048 8 3.056 11.3 1.018c2.916-1.802 5.3-1.061 7.285 1.042z" class="cls-1" transform="translate(143.41 205.753)"/>
                <path id="Caminho_4675" d="M15.277 1.283a80.569 80.569 0 0 1 9.7 8.225c1.967 1.833 5.42 4.1 5.712 7.272.237 2.559-1.717 4.237-3.859 4.713-3.866.858-8.425.052-12.22-.5a72.147 72.147 0 0 1-13.139-3.2 1.652 1.652 0 0 1-1.125-1.668C-.33 14.683.038 12.952.988 11.2 2.721 8 5.276 3.833 8.007 1.476c2.415-2.085 4.888-1.786 7.27-.193z" class="cls-2" transform="translate(153.785 190.418)"/>
                <path id="Caminho_4676" d="M11.4.445a80.48 80.48 0 0 1 11.533 5.36c2.382 1.246 6.314 2.521 7.435 5.5.907 2.4-.531 4.541-2.472 5.568-3.5 1.851-8.109 2.283-11.913 2.76a72.152 72.152 0 0 1-13.519.393A1.65 1.65 0 0 1 .94 18.713C-.093 17.5-.2 15.736.254 13.793c.824-3.544 2.182-8.238 4.191-11.236C6.221-.092 8.684-.46 11.4.445z" class="cls-1" transform="translate(161.889 175.325)"/>
                <path id="Caminho_4677" d="M6.253.026a80.531 80.531 0 0 1 12.682.957c2.668.328 6.8.136 8.9 2.528 1.7 1.932 1.1 4.437-.354 6.081-2.629 2.965-6.791 4.991-10.181 6.778A72.158 72.158 0 0 1 4.783 21.5a1.65 1.65 0 0 1-1.891-.689C1.5 20.039.779 18.423.517 16.446.04 12.839-.342 7.967.484 4.455 1.212 1.35 3.388.137 6.253.026z" class="cls-2" transform="translate(158.341 163.241)"/>
                <path id="Caminho_4678" d="M4.54 2.782A80.645 80.645 0 0 1 17.082.67c2.669-.321 6.63-1.5 9.241.322 2.109 1.469 2.133 4.044 1.114 5.989-1.837 3.509-5.39 6.473-8.256 9.019A72.151 72.151 0 0 1 8.26 23.981a1.65 1.65 0 0 1-2-.215c-1.538-.414-2.623-1.81-3.352-3.667C1.579 16.711.042 12.072 0 8.465c-.036-3.19 1.786-4.889 4.54-5.683z" class="cls-1" transform="translate(153.699 150.796)"/>
                <path id="Caminho_4679" d="M4.541 2.782A80.583 80.583 0 0 1 17.082.67c2.669-.321 6.631-1.5 9.242.322 2.109 1.469 2.132 4.044 1.115 5.989-1.839 3.508-5.392 6.473-8.258 9.019a72.1 72.1 0 0 1-10.92 7.979 1.652 1.652 0 0 1-2-.215c-1.539-.414-2.623-1.81-3.352-3.667C1.58 16.711.042 12.072 0 8.465c-.035-3.19 1.787-4.889 4.541-5.683z" class="cls-2" transform="translate(148.129 136.378)"/>
                <path id="Caminho_4680" d="M4.54 2.783A80.468 80.468 0 0 1 17.081.671c2.67-.322 6.631-1.5 9.242.322 2.109 1.468 2.133 4.043 1.115 5.988-1.838 3.508-5.391 6.473-8.257 9.019A72.092 72.092 0 0 1 8.26 23.981a1.65 1.65 0 0 1-2-.215c-1.538-.414-2.623-1.81-3.352-3.667C1.579 16.711.042 12.073 0 8.465c-.036-3.19 1.786-4.889 4.54-5.682z" class="cls-1" transform="translate(140.183 121.79)"/>
                <path id="Caminho_4681" d="M4.541 2.783A80.561 80.561 0 0 1 17.081.67c2.669-.321 6.632-1.5 9.243.322 2.108 1.469 2.132 4.045 1.115 5.989-1.839 3.508-5.392 6.473-8.258 9.019a72.107 72.107 0 0 1-10.92 7.979 1.651 1.651 0 0 1-2-.215c-1.539-.414-2.624-1.811-3.351-3.667C1.58 16.711.042 12.073 0 8.465c-.036-3.19 1.787-4.888 4.541-5.682z" class="cls-2" transform="translate(134.997 108.74)"/>
                <path id="Caminho_4682" d="M4.54 2.783A80.569 80.569 0 0 1 17.081.67c2.67-.321 6.631-1.5 9.242.322 2.109 1.469 2.133 4.044 1.115 5.989-1.838 3.508-5.391 6.473-8.257 9.019A72.161 72.161 0 0 1 8.26 23.981a1.652 1.652 0 0 1-2-.215c-1.538-.414-2.623-1.81-3.352-3.667C1.579 16.711.042 12.073 0 8.465c-.036-3.19 1.786-4.888 4.54-5.682z" class="cls-1" transform="translate(124.222 95.652)"/>
                <path id="Caminho_4683" d="M4.541 2.783A80.488 80.488 0 0 1 17.081.671c2.669-.322 6.631-1.5 9.242.322 2.109 1.468 2.132 4.044 1.115 5.988C25.6 10.489 22.047 13.454 19.18 16a72.1 72.1 0 0 1-10.92 7.981 1.651 1.651 0 0 1-2-.215c-1.539-.414-2.624-1.81-3.352-3.667C1.58 16.711.042 12.073 0 8.464c-.035-3.189 1.786-4.888 4.541-5.681z" class="cls-2" transform="translate(113.998 81.103)"/>
                <path id="Caminho_4684" d="M7.53.027a80.609 80.609 0 0 1 12.5 2.351c2.615.62 6.739.886 8.562 3.5 1.471 2.107.6 4.532-1.024 6-2.936 2.657-7.3 4.212-10.865 5.613A72.064 72.064 0 0 1 3.7 21.2a1.649 1.649 0 0 1-1.8-.893c-1.3-.92-1.837-2.6-1.879-4.6C-.06 12.075.1 7.191 1.306 3.791 2.374.785 4.671-.179 7.53.027z" class="cls-1" transform="translate(103.723 67.556)"/>
                <g id="Grupo_2541" transform="translate(72.3 30.868)">
                    <path id="Caminho_4685" d="M21.541 4.765a80.582 80.582 0 0 1 1.617 12.614c.215 2.679 1.234 6.685-.685 9.223-1.551 2.049-4.126 1.971-6.028.878-3.434-1.974-6.257-5.642-8.69-8.606A72.15 72.15 0 0 1 .212 7.648a1.652 1.652 0 0 1 .295-1.991c.474-1.521 1.912-2.55 3.8-3.2C7.74 1.258 12.435-.1 16.041.005c3.188.089 4.815 1.977 5.5 4.76z" class="cls-2" transform="translate(54.158 19.966)"/>
                    <path id="Caminho_4686" d="M19.732 4.365a73.824 73.824 0 0 1 1.481 11.556c.2 2.454 1.131 6.123-.627 8.447a4.128 4.128 0 0 1-5.522.8C11.92 23.365 9.334 20 7.1 17.289A66.08 66.08 0 0 1 .195 7.006a1.512 1.512 0 0 1 .27-1.824C.9 3.789 2.217 2.846 3.942 2.247 7.09 1.153 11.391-.087 14.7 0c2.915.086 4.405 1.815 5.032 4.365z" class="cls-1" transform="translate(69.271 16.57)"/>
                    <path id="Caminho_4687" d="M14.529 3.214a54.266 54.266 0 0 1 1.091 8.509c.146 1.807.833 4.509-.463 6.22a3.039 3.039 0 0 1-4.066.593c-2.316-1.331-4.22-3.805-5.861-5.8A48.657 48.657 0 0 1 .144 5.158a1.113 1.113 0 0 1 .2-1.343A3.711 3.711 0 0 1 2.9 1.653 24.972 24.972 0 0 1 10.821 0a3.7 3.7 0 0 1 3.708 3.214z" class="cls-2" transform="translate(85.294 18.366)"/>
                    <path id="Caminho_4688" d="M30.716 53.43a117.559 117.559 0 0 1 77.028-24.559 2 2 0 0 0 1.626-3.275A71.622 71.622 0 0 0 56.7.017 71.487 71.487 0 0 0 0 26.617z" class="cls-3"/>
                    <path id="Caminho_4689" fill="#469600" d="M26.377 38.881S14.657 11.286 9.67 0c0 0-7.237 3.515-9.67 5.2z" opacity="0.5" transform="translate(15.685 6.743)"/>
                </g>
                <path id="Caminho_4690" fill="#54c15f" d="M75.112 129.4L9.8 78.172A31.586 31.586 0 0 1 13.09 29.7L45.91 5.99a31.581 31.581 0 0 1 45.082 8.55c15.272 23.814 59.474 87.308 68.039 100.431 14.308 21.915-83.919 14.429-83.919 14.429z" transform="translate(9.357 37.454)"/>
                <path id="Caminho_4691" d="M28.741 11.347c3.574 3.2 7.447 6.534 12.195 7.2s10.351-2.75 10.051-7.535c-.259-4.122-4.431-6.8-8.306-8.226A45.453 45.453 0 0 0 29.6.053c-3.231-.187-6.693.043-9.315 1.94-4.3 3.113-4.673 9.2-5.969 14.347A32.3 32.3 0 0 1 0 35.789l9.153.709-6.364 6.673c3.992.975 8.235-1.063 11-4.1s4.36-6.937 5.895-10.749l7.187-17.853" class="cls-6" transform="translate(18.54 123.624)"/>
                <path id="Caminho_4692" d="M2.386 65.663c5.71-16 21.2-29.776 36.761-40.518 28.466-19.658 67.123-42.11 92.042-5.9s5.013 57.771-29.679 88.085c-37.06 32.384-56.052 37.334-87.57 2.309a66.652 66.652 0 0 1-7.311-9.67S-4.833 84.217 2.386 65.663z" class="cls-3" transform="translate(37.201 133.179)"/>
                <g id="Grupo_2543" transform="translate(121.666 185.424)">
                    <circle id="Elipse_396" cx="11.3" cy="11.3" r="11.3" class="cls-7" transform="rotate(78.17 11.058 13.617)"/>
                    <g id="Grupo_2542" transform="translate(8.737 5.791)">
                        <path id="Caminho_4693" d="M4.772 0c6.358 0 6.369 9.881 0 9.881S-1.6 0 4.772 0z" class="cls-8"/>
                    </g>
                </g>
                <g id="Grupo_2545" transform="translate(106.238 206.927)">
                    <circle id="Elipse_397" cx="11.3" cy="11.3" r="11.3" class="cls-7" transform="rotate(72.804 10.795 14.64)"/>
                    <g id="Grupo_2544" transform="translate(9.499 6.554)">
                        <path id="Caminho_4694" d="M4.772 0c6.358 0 6.368 9.881 0 9.881S-1.6 0 4.772 0z" class="cls-8"/>
                    </g>
                </g>
                <g id="Grupo_2546" transform="translate(68.096 243.532)">
                    <path id="Caminho_4695" d="M3.457 4.382l.111-.107-.006.007.006-.011a.25.25 0 0 0 .017-.059.475.475 0 0 0 0-.141.481.481 0 0 0-.033-.123c-.007-.014-.007-.012 0 0a.371.371 0 0 0 .076.076.383.383 0 0 0 .061.038l-.309-.148s-.011-.009-.008-.016.062-.022.062-.05-.072-.035-.053-.061c.058-.079-.087-.15 0-.277a1.082 1.082 0 0 0-.051-.3l-.053-.147c-.013-.04.014-.089-.006-.126l-.037-.069c-.046-.083-.146-.143-.176-.222-.034-.1-.087-.176-.118-.268a1.008 1.008 0 0 1-.148-.244c0-.01-.011-.012-.02-.014a.155.155 0 0 1-.036-.01h-.012c-.028-.009-.038-.037-.059-.051a.748.748 0 0 0-.126-.085.088.088 0 0 1-.032-.037c-.024-.009-.041 0-.054-.017S2.4 1.908 2.38 1.9s-.028-.056-.051-.074a.09.09 0 0 1-.045.005c-.016.012-.033.03-.042.015-.057-.08-.131.045-.188-.07A.235.235 0 0 0 1.9 1.76c-.025 0-.039.019-.059.025s-.043-.02-.043-.02v.015c-.007.021.04.076.034.072s-.01.009-.024.013.021.013-.017.031c-.009.007.022 0 .036 0h.01c.004 0 .009-.014.028 0s-.028.156-.014.072c0-.044.013-.062.013-.039a.133.133 0 0 1 .01.04 1.178 1.178 0 0 0 .059.2c.049.125.139.307.2.511a1.436 1.436 0 0 1 .065.614.329.329 0 0 1-.246.328c-.061.014-.125.013-.192.025a1.039 1.039 0 0 1-.349-.023 2.853 2.853 0 0 1-.321-.151 1.371 1.371 0 0 1-.676-.624A1 1 0 0 1 .2 2.565a.938.938 0 0 1-.073-.4.1.1 0 0 0 0-.04.136.136 0 0 0-.037-.033c-.124-.118-.086-.319-.08-.46a1.266 1.266 0 0 1 .143-.507 1.736 1.736 0 0 1 .772-.8 1.2 1.2 0 0 0 .189-.11 1.44 1.44 0 0 1 .458-.178A.682.682 0 0 1 1.8 0c.072.017.128.058.2.045A1.245 1.245 0 0 1 2.328.02a3.1 3.1 0 0 1 1.214.449.537.537 0 0 1 .158.124 1.149 1.149 0 0 0 .093.141.773.773 0 0 0 .169.1.709.709 0 0 1 .168.152l.146.183a.183.183 0 0 1 .033.078 1.2 1.2 0 0 1 .116.164 1.463 1.463 0 0 1 .177.3 3.213 3.213 0 0 1 .246.645.373.373 0 0 0 .054.12 1.327 1.327 0 0 1 .129.3.359.359 0 0 1 .042.155c-.009.054-.041.106-.018.157a1.128 1.128 0 0 1 .1.254 2.428 2.428 0 0 1-.168 1.411.771.771 0 0 1-.192.276c-.068.06-.148.1-.213.146s-.139.141-.217.2a.957.957 0 0 1-.32.161 1.546 1.546 0 0 1-.41.07.761.761 0 0 1-.378-.106c-.1-.048-.272-.072-.341-.185a.415.415 0 0 1-.017-.27.842.842 0 0 1 .3-.455z" class="cls-8"/>
                </g>
                <g id="Grupo_2547" transform="translate(77.686 235.946)">
                    <path id="Caminho_4696" d="M3.457 4.382l.111-.107-.006.006.006-.011a.263.263 0 0 0 .017-.06.513.513 0 0 0 0-.14.434.434 0 0 0-.034-.123c-.006-.014-.006-.013 0 0a.382.382 0 0 0 .137.114l-.308-.147s-.012-.009-.008-.017.062-.022.062-.05-.073-.035-.053-.06c.058-.08-.087-.151 0-.278a1.07 1.07 0 0 0-.051-.3l-.053-.146c-.013-.04.014-.089-.006-.127l-.038-.069c-.046-.083-.146-.142-.176-.222-.034-.1-.087-.176-.118-.267a1.011 1.011 0 0 1-.149-.244c0-.009-.011-.011-.019-.014a.1.1 0 0 1-.036-.009h-.012c-.028-.009-.038-.037-.058-.051a.81.81 0 0 0-.126-.086.088.088 0 0 1-.032-.037c-.024-.008-.041 0-.054-.016s-.053-.014-.073-.026-.028-.055-.052-.073a.111.111 0 0 1-.044.006c-.016.012-.033.03-.042.014-.058-.08-.131.045-.189-.07A.233.233 0 0 0 1.9 1.76c-.025 0-.04.019-.059.024S1.8 1.765 1.8 1.765v.015c-.008.02.041.075.034.072s-.01.008-.024.013.021.013-.017.031c-.01.006.022 0 .036 0h.009c.003 0 .009-.014.029 0s-.028.157-.014.073c0-.044.013-.062.013-.039a.127.127 0 0 1 .01.04 1.131 1.131 0 0 0 .059.2c.049.124.139.306.2.51a1.442 1.442 0 0 1 .065.615.329.329 0 0 1-.246.327c-.061.014-.125.013-.192.026a1.087 1.087 0 0 1-.349-.023 2.807 2.807 0 0 1-.321-.151 1.377 1.377 0 0 1-.675-.624A1.007 1.007 0 0 1 .2 2.565a.925.925 0 0 1-.073-.4.115.115 0 0 0 0-.041.163.163 0 0 0-.037-.032c-.124-.118-.09-.318-.079-.46a1.255 1.255 0 0 1 .143-.508 1.743 1.743 0 0 1 .771-.8 1.133 1.133 0 0 0 .19-.11 1.448 1.448 0 0 1 .457-.178A.683.683 0 0 1 1.8 0c.071.017.128.058.2.044A1.216 1.216 0 0 1 2.328.02a3.108 3.108 0 0 1 1.214.448.547.547 0 0 1 .158.124 1.08 1.08 0 0 0 .093.141.707.707 0 0 0 .169.1.7.7 0 0 1 .168.153l.145.182a.19.19 0 0 1 .033.078 1.045 1.045 0 0 1 .115.164 1.394 1.394 0 0 1 .178.3 3.151 3.151 0 0 1 .245.645.385.385 0 0 0 .054.119 1.316 1.316 0 0 1 .128.3c.014.049.05.1.042.155s-.041.106-.018.156a1.125 1.125 0 0 1 .1.255 2.435 2.435 0 0 1-.168 1.411.79.79 0 0 1-.193.276c-.068.059-.148.1-.213.146s-.139.141-.218.2a.932.932 0 0 1-.319.162 1.582 1.582 0 0 1-.41.07.775.775 0 0 1-.375-.105c-.1-.049-.272-.072-.34-.184a.413.413 0 0 1-.016-.27.839.839 0 0 1 .3-.454z" class="cls-8"/>
                </g>
                <g id="Grupo_2548" transform="translate(141.68 138.112)">
                    <path id="Caminho_4697" d="M10.083 11.434a2.842 2.842 0 0 1-1.588.884c-1.169.18-2.244-.618-3.126-1.4Q3.843 9.556 2.453 8.055a8.1 8.1 0 0 1-2.4-4.12C-.646-.921 5.563-.77 8.046 1.629a10.915 10.915 0 0 1 3.431 5.887 5.218 5.218 0 0 1-1.394 3.918z" class="cls-9" transform="translate(8.992 24.092)"/>
                    <path id="Caminho_4698" d="M7.054 7.872a3.1 3.1 0 0 1-3.381.768 5.6 5.6 0 0 1-1.867-1.494A5.864 5.864 0 0 1 0 3.2C.163-.613 4.792-.882 6.761 1.669c1.373 1.778 2.054 4.438.293 6.203z" class="cls-9" transform="translate(0 12.971)"/>
                    <path id="Caminho_4699" d="M10.379 6.3c.963 2.507-.524 7.987-4.187 6.518a5.5 5.5 0 0 1-2.246-2.18L1.569 7.207A8.935 8.935 0 0 1 .115 4.483 3.7 3.7 0 0 1 4.485.071C7.2.615 9.453 3.889 10.379 6.3z" class="cls-9" transform="translate(12.549 9.427)"/>
                    <path id="Caminho_4700" d="M8.028 4.881a3.186 3.186 0 0 1-2.7 3.027c-1.771.276-3.139-.836-4.146-2.188A5.394 5.394 0 0 1 .034 3.235C-.49-.995 5.25-.689 7.009 1.927a5 5 0 0 1 1.019 2.954z" class="cls-9" transform="translate(2.327)"/>
                </g>
                <g id="Grupo_2549" transform="translate(0 18.676)">
                    <path id="Caminho_4701" d="M.4 8.842A11.235 11.235 0 0 1 1.435.4a.819.819 0 0 1 1.519.343 12.95 12.95 0 0 0 3.1 7.738z" class="cls-7" transform="translate(5.338 .708)"/>
                    <path id="Caminho_4702" d="M.4 8.842A11.237 11.237 0 0 1 1.436.4a.818.818 0 0 1 1.517.343 12.961 12.961 0 0 0 3.1 7.739z" class="cls-7" transform="translate(10.994 .342)"/>
                    <path id="Caminho_4703" d="M.4 8.841A11.237 11.237 0 0 1 1.435.4a.819.819 0 0 1 1.518.343 12.96 12.96 0 0 0 3.1 7.739z" class="cls-7" transform="translate(16.49)"/>
                    <path id="Caminho_4704" d="M20.28 53.477S-1.663 29.079.1 8.705a8.337 8.337 0 0 1 7.429-7.531L17.894.05a8.369 8.369 0 0 1 9.257 8.043c.336 9.25 2.526 23.886 11.885 35.753z" class="cls-6" transform="translate(0 6.524)"/>
                </g>
                <g id="Grupo_2550" transform="translate(35.691)">
                    <path id="Caminho_4705" d="M.177 8.661A11.235 11.235 0 0 1 1.945.339a.818.818 0 0 1 1.482.475 12.958 12.958 0 0 0 2.414 7.979z" class="cls-7" transform="translate(6.598)"/>
                    <path id="Caminho_4706" d="M.177 8.661A11.238 11.238 0 0 1 1.944.339a.819.819 0 0 1 1.483.475 12.956 12.956 0 0 0 2.415 7.978z" class="cls-7" transform="translate(12.264 .126)"/>
                    <path id="Caminho_4707" d="M.177 8.661A11.239 11.239 0 0 1 1.944.339a.818.818 0 0 1 1.482.475 12.961 12.961 0 0 0 2.415 7.978z" class="cls-7" transform="translate(17.769 .262)"/>
                    <path id="Caminho_4708" d="M13.872 53.679s-18.435-28.291-12.8-48.2A7.62 7.62 0 0 1 8.785.009L20.5.559a7.659 7.659 0 0 1 7.255 8.606c-1.177 9.122-1.482 24.368 6.133 37.894z" class="cls-6" transform="translate(0 7.155)"/>
                </g>
                <g id="Grupo_2551" transform="translate(9.363 72.666)">
                    <path id="Caminho_4709" fill="#3e950c" d="M47.273 21.72c14.293 22.316 18.992 50.3 11.5 59.657L9.8 42.96A31.6 31.6 0 0 1 7.2 0c15.087 2.011 31.014 7.576 40.073 21.72z"/>
                </g>
                <g id="Grupo_2554" transform="translate(41.684 179.245)">
                    <path id="Caminho_4710" d="M3.315 10.726C2.006 8.649-.348 5.447.043 2.817.481-.127 3.625-.524 5.909.53a11.27 11.27 0 0 1 5.524 4.276z" class="cls-7" transform="translate(19.999 9.745)"/>
                    <path id="Caminho_4711" d="M2.135 10.935C1.177 8.588-.64 4.914.229 2.311 1.2-.6 4.468-.442 6.6 1.038a11.638 11.638 0 0 1 4.846 5.336z" class="cls-7" transform="translate(27.943 3.55)"/>
                    <path id="Caminho_4712" d="M.958 10.278C.436 7.877-.684 4.066.58 1.727 2-.892 5.086-.192 6.874 1.577a11.275 11.275 0 0 1 3.735 5.9z" class="cls-7" transform="translate(37.724)"/>
                    <g id="Grupo_2552" transform="translate(0 5.063)">
                        <path id="Caminho_4713" d="M67.967 2.446a2.207 2.207 0 0 1-1.51.16c-.347-.035-.716-.132-1.078-.207l-1.569-.256c-.325-.054-.647-.083-.971-.116a9.825 9.825 0 0 1-.992-.066c-.424-.054-.857-.1-1.285-.135-.685-.059-1.375-.022-2.061-.034h-1.029l-1.032.05c-.6.033-1.2.046-1.793.106s-1.2.068-1.8.13c-.449.036-.864.177-1.314.233-.647.077-1.3.2-1.937.318a17.978 17.978 0 0 1-1.872.377c-1.05.192-2.069.532-3.1.807-.526.158-1.04.357-1.562.53-.422.146-.82.234-1.249.394l-.78.326c-.959.391-1.923.856-2.843 1.3-1.1.474-2.162 1.05-3.237 1.593-.583.286-1.124.647-1.687.966s-1.124.64-1.67.987c-.1.061-.185.123-.272.184l-.363.26-.114.084c-.315.227-.676.441-1 .662l-2 1.466-.653.493-1.015.821c-.48.364-.933.776-1.388 1.165-.394.336-.815.647-1.223.979l-.6.576a6.123 6.123 0 0 1-.548.536c-1.025.829-1.869 1.9-2.833 2.684-.748.771-1.515 1.528-2.224 2.339l-1.1 1.247c-.3.333-.586.625-.88.982l-.536.66c-.667.8-1.261 1.706-1.905 2.5-.746.952-1.463 1.932-2.191 2.9L8.5 33.655c-.2.27-.323.514-.489.784l-.654 1.017c-.448.7-.9 1.4-1.334 2.12-.836 1.35-1.794 2.636-2.533 4.037-.41.8-.814 1.527-1.3 2.323a8.448 8.448 0 0 1-.512.821 8.465 8.465 0 0 1-.659.718c-.406.421-.725.533-.89.359s-.133-.563-.1-1.011A4.472 4.472 0 0 1 .6 43.291l.472-.853.851-1.511c.274-.487.591-.9.863-1.4.785-1.429 1.71-2.775 2.6-4.162.315-.514.6-1.023.928-1.522.392-.587.765-1.1 1.187-1.665a1.856 1.856 0 0 0 .121-.173 2.131 2.131 0 0 0 .1-.19 16.151 16.151 0 0 1 1.287-1.95c.494-.728 1.02-1.433 1.553-2.134 1.127-1.484 2.262-2.953 3.486-4.35.242-.279.47-.57.7-.857.606-.717 1.221-1.432 1.853-2.132.308-.326.649-.717.969-1.023s.57-.508.872-.84c.481-.5.938-.985 1.433-1.475 1.963-1.886 3.986-3.652 6.139-5.343a11.764 11.764 0 0 1 1.082-.821c.31-.207.624-.4.929-.613.369-.255.7-.552 1.065-.81.424-.3.864-.588 1.3-.874.465-.306.93-.613 1.415-.886.2-.116.367-.206.532-.29l1.28-.757q1.168-.633 2.353-1.241l2.56-1.174c.862-.364 1.736-.7 2.607-1.033l1.049-.38c.888-.326 1.777-.661 2.7-.9.434-.124.932-.286 1.366-.385.414-.1.762-.119 1.2-.232.677-.164 1.325-.349 2.014-.484A54.6 54.6 0 0 1 57.612 0c.456 0 .915.006 1.369.032.374.021.742.058 1.118.07l1.345.062c.523.027 1.05.074 1.575.121l1.663.262a10.426 10.426 0 0 1 1.349.307c.386.115.9.191 1.25.333a2.6 2.6 0 0 1 .561.345c.33.241.452.458.439.651-.009.117-.173.182-.314.263z" class="cls-8"/>
                    </g>
                    <g id="Grupo_2553" transform="translate(67.219 1.113)">
                        <path id="Caminho_4714" d="M1.134.012a.732.732 0 0 1 .517.155.2.2 0 0 1 .049.146l.017.217c0 .09.1.169.083.263a.535.535 0 0 0-.006.178c.026.186.093.368.1.556 0 .081.025.164.03.244s-.045.167-.041.25c0 .062.08.115.062.178-.051.182.089.354-.014.529a2.81 2.81 0 0 0 0 .437c.006.074.016.148.022.223s-.033.118-.023.18l.02.114a3.281 3.281 0 0 1 .108.416c0 .163.024.326.019.49a2.438 2.438 0 0 1 .022.526.088.088 0 0 0 .009.044.28.28 0 0 1 .025.059l.01.018a.688.688 0 0 1 .019.162c.014.111.029.223.045.334a.441.441 0 0 1 0 .111 1.307 1.307 0 0 1 .029.175c0 .081.025.163.03.244a1.3 1.3 0 0 1-.035.215.6.6 0 0 1 .026.111.127.127 0 0 1 .031.1c-.051.181.088.355-.014.529a2.7 2.7 0 0 0 0 .437c.006.074.016.148.022.223s-.033.118-.023.18l.02.114a3.35 3.35 0 0 1 .108.416c0 .163.023.326.019.49a2.429 2.429 0 0 1 .022.526c-.007.046.027.08.043.121a.644.644 0 0 1 .02.162q.021.167.046.334c.031.211-.113.437-.014.643a.623.623 0 0 1 .068.353c0 .046.008.088-.032.133a1.119 1.119 0 0 1-.21.143 1.261 1.261 0 0 1-.59.146 2.257 2.257 0 0 1-.588-.067c-.175-.037-.254-.114-.27-.2a.931.931 0 0 0-.026-.128 1.651 1.651 0 0 1-.041-.228c-.013-.073.032-.146.007-.219a2.5 2.5 0 0 1-.032-.652.986.986 0 0 1-.067-.233.862.862 0 0 1 .032-.274.038.038 0 0 0 0-.028.087.087 0 0 0-.028-.026c-.106-.08-.075-.21-.09-.3a2.451 2.451 0 0 1-.035-.348c0-.248-.042-.491-.024-.739a.473.473 0 0 0-.021-.144 2.066 2.066 0 0 1-.058-.371.511.511 0 0 1-.011-.185c.019-.058.059-.106.046-.164a1.638 1.638 0 0 1-.058-.268 9.348 9.348 0 0 0-.075-1.072.458.458 0 0 1-.012-.179.824.824 0 0 0 .034-.149.536.536 0 0 0-.056-.172.689.689 0 0 1-.037-.2l-.02-.219a.184.184 0 0 1 .012-.081 1.8 1.8 0 0 1-.021-.194A2.38 2.38 0 0 1 .3 4.445c0-.248-.043-.491-.025-.739a.431.431 0 0 0-.025-.145 2.193 2.193 0 0 1-.058-.371A.5.5 0 0 1 .183 3c.018-.057.058-.1.045-.164a1.648 1.648 0 0 1-.058-.264A9.1 9.1 0 0 0 .094 1.5a.461.461 0 0 1-.012-.179.8.8 0 0 0 .034-.15A.545.545 0 0 0 .057 1 .75.75 0 0 1 .02.8L0 .578A.423.423 0 0 1 .056.393C.076.338.027.275.08.222a.747.747 0 0 1 .2-.1A1.974 1.974 0 0 1 .8.005a1.92 1.92 0 0 1 .334.007z" class="cls-8"/>
                    </g>
                </g>
                <g id="Grupo_2556" transform="translate(108.774 77.449)">
                    <path id="Caminho_4715" fill="#46f728" d="M13.367 16.873c1.54 4.54 3.1 9.411 1.847 14.04S8.629 39.36 4.345 37.21C.652 35.357-.174 30.471.028 26.345A45.428 45.428 0 0 1 2.64 13.239C3.733 10.193 5.3 7.1 8.073 5.429c4.547-2.736 10.3-.7 15.539.126A32.3 32.3 0 0 0 47.112 0L44.18 8.7l8.632-3.242c-.667 4.055-4.2 7.161-8.081 8.52s-8.089 1.294-12.2 1.214l-19.242-.378" transform="translate(1.574)"/>
                    <g id="Grupo_2555" opacity="0.5" transform="translate(0 1.474)">
                        <path id="Caminho_4716" d="M11.6 3.086a9.028 9.028 0 0 0-1.952.87c-2.773 1.668-4.34 4.765-5.433 7.81A45.419 45.419 0 0 0 1.6 24.871a18.552 18.552 0 0 0 .549 5.773C.317 28.3-.125 24.731.028 21.6A45.425 45.425 0 0 1 2.64 8.494C3.733 5.448 5.3 2.352 8.073.684A8.978 8.978 0 0 1 9.505 0z" class="cls-9"/>
                    </g>
                </g>
            </g>
            <g id="Grupo_2564" transform="translate(25.662 114.906)">
                <path id="Caminho_4717" d="M13.189 36.12L0 28.369S39.914-18 117.391 7.829l-3.108 15.308S65.778-2.922 13.189 36.12z" class="cls-7" transform="translate(20.445)"/>
                <g id="Grupo_2558" transform="translate(0 12.653)">
                    <path id="Caminho_4718" d="M174.179 50.552a21.6 21.6 0 0 1 1.734 2.87c.3.644.644 1.395 1.036 2.3l.632 1.477c.2.546.407 1.136.636 1.775a67.721 67.721 0 0 1 2.058 6.961 85.631 85.631 0 0 1 1.763 10.352c.281 2.164.379 4.3.535 6.447.034 2.153.13 4.328-.033 6.576l-.108 2.127-.208 2.13-.2 2.133-.3 2.116a85.638 85.638 0 0 1-2.918 13.3 86.922 86.922 0 0 1-4.91 12.715 90.793 90.793 0 0 1-5.8 10.364c-1.038 1.683-2.243 3.254-3.406 4.863-.588.8-1.236 1.556-1.851 2.34s-1.234 1.57-1.907 2.314a85.679 85.679 0 0 1-5.947 6.482 108.341 108.341 0 0 1-9.858 8.4c-1.753 1.241-3.462 2.522-5.262 3.611-.894.552-1.753 1.146-2.662 1.642l-2.684 1.489a96.791 96.791 0 0 1-19.4 8.118c-1.734.5-3.466 1.015-5.231 1.4-.88.2-1.754.428-2.638.609l-2.662.5c-1.44.3-2.831.441-4.224.624-1.391.2-2.8.313-4.3.442-1.838.206-3.687.242-5.534.33a90.075 90.075 0 0 1-42.812-9.216 97.874 97.874 0 0 1-11.018-6.455 89.235 89.235 0 0 1-9.9-8.017c-.563-.52-1.041-1.018-1.548-1.5-.692-.685-1.415-1.344-2.088-2.067l-.631-.679c-1.766-1.844-3.506-3.983-5.095-6.009A82.574 82.574 0 0 1 8.8 129.577c-.428-.788-.785-1.61-1.148-2.43l-1.088-2.457L5 120.7c-.488-1.343-.907-2.711-1.36-4.07A81.583 81.583 0 0 1 .055 94.81c-.031-.893-.028-1.8-.042-2.715s-.036-1.825.022-2.725c.06-1.66.059-3.324.272-5.02a91.426 91.426 0 0 1 2.1-12.789 75.1 75.1 0 0 1 3.84-11.974 93.511 93.511 0 0 1 9.943-18.543c1.059-1.462 2.066-2.964 3.213-4.36l1.677-2.127 1.775-2.046c.943-1.128 1.929-2.118 2.91-3.124.493-.5.972-1.017 1.488-1.515l1.594-1.513c1.311-1.305 2.725-2.5 4.118-3.709a92.222 92.222 0 0 1 16.923-11.516c1.757-.895 3.5-1.818 5.32-2.594.9-.4 1.792-.831 2.709-1.2l2.757-1.087c.913-.379 1.847-.7 2.785-1.011l2.808-.95 2.85-.813 1.424-.406c.478-.125.962-.228 1.441-.343l3.11-.73 3.138-.587c1.043-.214 2.1-.36 3.151-.5S83.484.6 84.542.505a96.93 96.93 0 0 1 12.72-.469l3.041.15 1.462.063 1.5.135c2.541.2 5.263.615 7.8 1.053a89.806 89.806 0 0 1 15.716 4.287A91 91 0 0 1 153.3 21.487a77.791 77.791 0 0 1 11.908 12.536l1.895 2.6c.628.833 1.133 1.719 1.676 2.571 1.214 1.879 2.066 3.743 2.944 5.413 1.539 3.327 1.986 4.913 1.506 4.631a6.145 6.145 0 0 1-1.221-1.474c-.263-.4-.562-.845-.887-1.33-.309-.493-.659-1.013-1.05-1.534-1.365-1.922-3.442-5.247-5.814-8.346-1.143-1.63-2.494-3.168-3.814-4.787a88.03 88.03 0 0 0-7.664-7.709 83.365 83.365 0 0 0-8.057-6.4 89.369 89.369 0 0 0-27.92-12.646l-2.74-.654-2.739-.518-1.365-.259-1.377-.2-2.764-.408a108.939 108.939 0 0 0-12.783-.763c-.438 0-.887.024-1.324.045l-1.328.089a112.569 112.569 0 0 0-14.494 1.89A96.247 96.247 0 0 0 60.1 9.029a94.72 94.72 0 0 0-29.294 18.53c-.832.8-1.69 1.573-2.492 2.4l-2.377 2.511a93.688 93.688 0 0 0-10.581 14.07l-2.2 3.821-2.015 3.884c-.571 1.193-1.084 2.266-1.6 3.356-.485 1.106-.942 2.244-1.465 3.541a95.649 95.649 0 0 0-3.659 12.281A82.342 82.342 0 0 0 8.5 123.136c.532 1.3 1.149 2.57 1.715 3.859s1.268 2.513 1.884 3.77c.493 1.045 1.117 2.01 1.667 3.018l.854 1.5.941 1.455c.764 1.167 1.51 2.334 2.364 3.422.835 1.1 1.63 2.227 2.539 3.27l1.546 1.866c.51.627 1.084 1.2 1.623 1.809l1.646 1.8 1.73 1.716c1.2 1.245 2.525 2.352 3.8 3.515.628.593 1.331 1.1 1.992 1.653.676.537 1.332 1.1 2.024 1.615l3.022 2.233c1.314.849 2.646 1.755 3.98 2.578 1.36.779 2.646 1.6 3.883 2.236a89.089 89.089 0 0 0 15.164 6.449 90.963 90.963 0 0 0 34.4 3.969c1.149-.1 2.3-.183 3.446-.32l3.424-.484a95.271 95.271 0 0 0 17.058-4.374c2.634-.946 5.618-2.192 8.127-3.338 1.225-.506 2.275-1.067 3.364-1.593l1.653-.822c.563-.289 1.124-.632 1.732-.977a94.491 94.491 0 0 0 10.681-7.1 90.174 90.174 0 0 0 29.987-40.094l1.384-3.994 1.211-4.042.854-3.344c.284-1.113.479-2.249.717-3.385.3-1.364.452-2.743.642-4.111.214-1.366.3-2.744.418-4.121a94.791 94.791 0 0 0 .269-9.72 85.033 85.033 0 0 0-.982-10.3l-.354-2.263-.4-2-.39-1.966c-.131-.672-.333-1.355-.517-2.108-.308-1.2-.661-2.571-1.125-3.886-.443-1.321-.827-2.641-1.241-3.728-.522-1.443-.824-2.737-1.183-3.72-.774-2.24-1.011-3.363-.882-3.7.084-.216.573.559 1.012 1.173z" class="cls-13"/>
                </g>
                <path id="Caminho_4719" d="M5.855 2.763a2.9 2.9 0 0 1-3.544 3.128 3.1 3.1 0 0 1-2.274-3.4A3.1 3.1 0 0 1 3.3.015a2.715 2.715 0 0 1 2.555 2.748z" class="cls-14" transform="translate(123.382 9.791)"/>
                <path id="Caminho_4720" d="M5.338 5.329A3.03 3.03 0 0 1 .25 3.663 2.494 2.494 0 0 1 0 2.623 2.745 2.745 0 0 1 2.479.029a3.23 3.23 0 0 1 2.859 5.3z" class="cls-14" transform="translate(111.585 7.332)"/>
                <path id="Caminho_4721" fill="#86a8e2" d="M2.631 6.014C.194 5.763-.98 2.373 1 .815A2.886 2.886 0 0 1 1.512.5 2.216 2.216 0 0 1 1.7.361a2.844 2.844 0 0 1 3.494.6 3.09 3.09 0 0 1-2.563 5.053z" transform="translate(33.958 21.887)"/>
                <g id="Grupo_2559" transform="translate(46.875 6.714)">
                    <path id="Caminho_4722" fill="#3f425c" d="M53.716 1.606a1.354 1.354 0 0 1-.965.241 5.59 5.59 0 0 1-.714-.057l-1.026-.129c-.425-.058-.841-.037-1.28-.083-.276-.033-.558-.059-.837-.078-.893-.048-1.781-.123-2.677-.136l-1.168-.032-1.171-.082c-.292-.015-.571.031-.866.022-.846-.038-1.714.058-2.512-.016-.692-.026-1.383.032-2.075.058l-1.066.058c-.289.015-.551 0-.847.018l-.544.056c-.665.072-1.349.186-2.006.242-.776.054-1.546.167-2.318.262l-2.487.344c-.075.011-.141.027-.208.042l-.282.065-.088.022c-.245.055-.512.1-.761.142l-1.576.3-.518.1-.82.193-1.138.263c-.327.072-.661.119-.993.184l-.514.15a3.818 3.818 0 0 1-.473.143c-.829.175-1.646.484-2.437.613l-1.989.6-1.017.322c-.278.082-.531.147-.809.251l-.511.193c-.627.234-1.261.516-1.882.735-.732.259-1.443.58-2.17.857-.778.314-1.546.642-2.311.979-.2.082-.347.176-.528.269-.223.115-.471.221-.7.328-.482.231-.973.444-1.441.7-.9.475-1.862.837-2.73 1.356-.483.314-.937.587-1.464.869a4.962 4.962 0 0 1-.551.281 5.266 5.266 0 0 1-.606.166c-.366.09-.589.036-.633-.126s.1-.374.256-.619A2.615 2.615 0 0 1 1.077 11l.539-.321.961-.567c.309-.185.629-.295.942-.475.918-.506 1.859-.967 2.82-1.412.347-.173.675-.354 1.024-.511.414-.185.788-.349 1.208-.513a1.2 1.2 0 0 0 .124-.055 1.162 1.162 0 0 0 .116-.074 8.636 8.636 0 0 1 1.363-.623l1.564-.646c1.108-.447 2.235-.826 3.357-1.216l.665-.243c.569-.2 1.143-.38 1.718-.56.273-.085.585-.2.86-.267s.477-.1.75-.19l1.262-.366c.841-.217 1.671-.457 2.515-.641s1.688-.371 2.536-.575a7.374 7.374 0 0 1 .848-.173l.7-.094c.281-.048.555-.119.832-.182.323-.072.652-.131.98-.191.349-.065.7-.127 1.05-.171C29.958.92 30.08.91 30.2.9l.937-.133L32.81.534C34 .429 35.182.306 36.368.22c.237-.008.472-.026.707-.045.6-.046 1.2-.082 1.8-.113.287-.015.617-.045.9-.043s.489.04.775.028L41.866.01c1.74-.048 3.45.1 5.195.119.289.017.578.034.863.068l.7.086c.284.025.567.024.851.034.331.011.665.037 1 .062l1.056.126c.337.041.548.1.861.155.25.047.577.055.808.124a1.515 1.515 0 0 1 .375.193c.224.14.317.281.322.418.003.085-.097.142-.181.211z"/>
                </g>
                <g id="Grupo_2560" transform="translate(23.289 144.055)">
                    <path id="Caminho_4723" d="M68.366 33.838c-.226.411-.5.6-1.271.8a5.672 5.672 0 0 1-1.036.127l-1.506.093c-.313.019-.617.07-.925.117a5.947 5.947 0 0 1-.944.025c-.406-.026-.819-.039-1.228-.038l-1.959.032-.98.016-.978-.071-1.7-.123c-.566-.048-1.125-.174-1.7-.224a6.981 6.981 0 0 1-1.263-.076c-1.209-.277-2.492-.294-3.615-.632-1-.154-1.966-.454-2.954-.658l-1.519-.335c-.411-.093-.767-.234-1.191-.321l-.768-.208c-.937-.259-1.933-.453-2.852-.736-.539-.176-1.092-.31-1.622-.513l-1.59-.613c-1.14-.445-2.316-.786-3.406-1.336a2.684 2.684 0 0 0-.285-.119l-.4-.146-.125-.044c-.343-.129-.7-.306-1.035-.454l-2.145-.936a7.367 7.367 0 0 1-.669-.365l-1.1-.558-1.514-.787c-.43-.231-.837-.508-1.264-.756-.228-.119-.455-.254-.677-.386a3.965 3.965 0 0 1-.629-.353c-1-.729-2.176-1.246-3.071-2-.8-.616-1.612-1.215-2.431-1.8l-1.266-.9c-.349-.237-.6-.534-.938-.8l-.623-.5c-.763-.606-1.6-1.173-2.339-1.794-.864-.733-1.66-1.549-2.476-2.336a24.94 24.94 0 0 1-2.565-2.613 7.39 7.39 0 0 0-.618-.6c-.264-.254-.519-.558-.772-.828-.525-.589-1.088-1.135-1.562-1.758-.937-1.159-1.689-2.46-2.684-3.557a20.508 20.508 0 0 1-1.44-2.027 5.249 5.249 0 0 1-.455-.782 5.562 5.562 0 0 1-.233-.9C-.077.519.061.16.374.044a1.68 1.68 0 0 1 1.119.19 2.771 2.771 0 0 1 1.111 1l.507.71c.31.412.6.842.893 1.264A14.318 14.318 0 0 0 4.867 4.4C5.85 5.476 6.616 6.725 7.6 7.822c.381.384.771.73 1.126 1.127.418.471.788.9 1.175 1.4a1.115 1.115 0 0 0 .124.142 1.193 1.193 0 0 0 .154.115 17.447 17.447 0 0 1 1.553 1.388c.577.529 1.151 1.063 1.711 1.61a22.655 22.655 0 0 0 1.865 1.636c.636.528 1.268 1.058 1.888 1.6a8.538 8.538 0 0 0 .774.608c.7.462 1.384.942 2.064 1.431.323.232.714.477 1.013.734a7.141 7.141 0 0 0 .83.691c.535.308 1.057.591 1.582.919 1.036.621 2.016 1.32 3.072 1.893s2.116 1.14 3.2 1.684l1.075.537c.293.152.571.321.872.462.36.168.736.289 1.106.428.431.163.854.352 1.277.541a14.566 14.566 0 0 0 1.364.564 5.334 5.334 0 0 1 .492.21c.425.139.862.318 1.236.45.739.261 1.476.527 2.207.81 1.581.5 3.173.94 4.742 1.463.317.085.642.142.964.2.823.152 1.641.326 2.458.51.389.088.842.161 1.219.28a5.825 5.825 0 0 0 1.046.256c.612.073 1.2.129 1.813.224 1.193.188 2.373.4 3.572.473 1.194.1 2.392.219 3.6.267.4-.006.8-.013 1.2.013.328.022.652.065.982.073.4.009.789-.032 1.182-.053.459-.024.922-.021 1.384-.018L65 32.4a10.718 10.718 0 0 1 1.215.019 8.8 8.8 0 0 1 1.137-.021 1.878 1.878 0 0 1 .58.255 1.13 1.13 0 0 1 .606.713c.034.163-.082.307-.172.472z" class="cls-13"/>
                </g>
                <g id="Grupo_2561" transform="translate(167.251 81.357)">
                    <path id="Caminho_4724" fill="#434343" d="M1.26.005a.9.9 0 0 1 .883.34 1.333 1.333 0 0 1 .229.446l.245.678a4.689 4.689 0 0 1 .375.818 4.265 4.265 0 0 0 .152.568c.2.593.484 1.158.627 1.768l.227.785c.075.259.06.545.129.813.053.2.2.362.21.571a13.932 13.932 0 0 1 .3 1.732l.212 1.432.131.732c.034.2.006.387.048.589l.063.375c.076.459.233.926.28 1.384.064.538.116 1.079.132 1.622a13.646 13.646 0 0 1 .1 1.748.666.666 0 0 0 .014.147c.014.066.028.132.036.2l.013.062a4.956 4.956 0 0 1 .029.54l.067 1.118a2.7 2.7 0 0 1-.016.369c.008.2.02.392.017.588 0 .271.006.547.008.816 0 .234-.059.467-.08.7.008.123.01.25.007.373a.942.942 0 0 1 .014.345 13.612 13.612 0 0 1-.172 1.746c-.081.476-.14.955-.189 1.435l-.066.74c-.016.2-.1.374-.124.579l-.039.378c-.047.463-.018.955-.093 1.41-.089.534-.2 1.067-.315 1.6a11.087 11.087 0 0 1-.378 1.709 1.706 1.706 0 0 0-.047.413 5.157 5.157 0 0 1-.113.528c-.081.364-.146.732-.244 1.093a16.308 16.308 0 0 0-.665 2.023 4.7 4.7 0 0 1-.319 1.145 1.2 1.2 0 0 1-.193.389 2.035 2.035 0 0 1-.426.3.935.935 0 0 1-.9.029 1.782 1.782 0 0 1-.661-.615.852.852 0 0 1-.127-.766c.036-.129.078-.26.108-.4.052-.239.133-.47.2-.7a6.16 6.16 0 0 0 .227-.655c.1-.686.408-1.314.572-1.992a6.83 6.83 0 0 1 .1-.748 5.867 5.867 0 0 1 .271-.823.242.242 0 0 0 .025-.086.316.316 0 0 0-.015-.094 2.836 2.836 0 0 1 .1-.984c.055-.366.116-.731.194-1.092.171-.766.225-1.546.394-2.31a2.563 2.563 0 0 0 .048-.462c.007-.4.036-.791.075-1.184a3.5 3.5 0 0 1 .06-.595 1.847 1.847 0 0 0 .13-.5c0-.292-.024-.574-.007-.865a28.455 28.455 0 0 0 .1-3.408 5.43 5.43 0 0 1 0-.567c.013-.156.048-.31.048-.467a3.44 3.44 0 0 0-.083-.556 4.947 4.947 0 0 1-.053-.654c-.008-.232-.017-.464-.041-.7a1.221 1.221 0 0 1 .006-.254c-.033-.208-.036-.432-.058-.618-.043-.367-.08-.735-.1-1.1-.07-.78-.2-1.549-.243-2.33a3.182 3.182 0 0 0-.092-.456c-.1-.383-.173-.771-.239-1.16a3.525 3.525 0 0 1-.088-.58 1.674 1.674 0 0 0-.024-.512c-.081-.28-.175-.546-.235-.831a29.668 29.668 0 0 0-.825-3.3 3.346 3.346 0 0 1-.169-.541C1 4.119.989 3.962.947 3.811A3.417 3.417 0 0 0 .718 3.3a5.151 5.151 0 0 1-.227-.614l-.245-.652a2.486 2.486 0 0 1-.106-.569C.113 1.3-.019 1.119 0 .944A.975.975 0 0 1 .183.592 1.466 1.466 0 0 1 .794.079 1.206 1.206 0 0 1 1.26.005z"/>
                </g>
                <g id="Grupo_2562" transform="translate(164.143 123.062)">
                    <path id="Caminho_4725" d="M2.743.632a3.993 3.993 0 0 1 .615.356c.049.037.043.05.035.062l-.032.05c-.013.021.091.1.047.1-.028 0-.044.015-.047.031-.009.053.034.131.006.175-.012.019 0 .047-.016.067s-.095 0-.106.022.075.074.039.075c-.1 0 .032.127-.135.094a.188.188 0 0 0-.1.084l-.022.057c-.008.015-.068 0-.068.02v.034c0 .042.068.122.042.151s-.042.079-.084.107c-.024.041-.016.1-.089.116-.007 0 0 .008 0 .015a.106.106 0 0 1 .018.028l.008.01c.013.024-.008.03-.012.044l-.017.1c0 .01-.015.014-.027.02s.007.039 0 .053-.005.048-.016.067-.066.009-.091.017a.067.067 0 0 1 .008.039c.018.02.036.041.016.041-.1 0 .032.128-.133.092a.18.18 0 0 0-.1.083L2.46 2.9c-.008.015-.067 0-.068.019v.035c0 .043.067.125.041.154s-.042.079-.084.106c-.025.042-.016.1-.089.115-.018 0 .016.034.027.054s-.008.029-.012.045l-.017.1c-.009.062-.234 0-.157.112.043.062.049.1.006.115-.016.006-.008.023-.069 0s-.189-.079-.286-.121c-.191-.089-.47-.234-.752-.396S.525 2.953.3 2.81c-.206-.131-.286-.2-.288-.226a.086.086 0 0 0 0-.041c-.014-.03 0-.046 0-.069s.071 0 .056-.034c-.05-.089.064-.09.092-.14-.01-.029-.048-.073-.032-.089a.122.122 0 0 1 .1-.026h.007a.2.2 0 0 0-.029-.024c-.113-.092-.047-.093-.046-.12a.117.117 0 0 1 .032-.086c.049-.046.053-.117.127-.15.015-.006.01-.023 0-.041a.129.129 0 0 1 .008-.106c.007-.013-.01-.042.027-.041s.1.022.091 0-.022-.064-.01-.085c.042-.083.146-.132.136-.244 0-.019 0-.037.023-.04s.063 0 .074 0-.02-.048-.036-.075a.057.057 0 0 1 0-.062l.023-.052c0-.007.017-.008.033-.007C.678 1.029.7 1.02.7 1A.117.117 0 0 1 .733.917C.782.871.785.8.86.768.875.76.87.744.865.727a.124.124 0 0 1 .007-.1C.88.608.863.58.9.581s.1.019.092 0S.964.515.976.494c.042-.083.147-.134.136-.244 0-.019 0-.037.024-.041S1.2.214 1.21.2 1.19.16 1.175.136a.055.055 0 0 1 0-.061l.019-.053c.008-.016.064 0 .11 0s-.012-.041.067-.016c.052.016.18.07.272.107.208.086.442.193.687.309z" class="cls-7"/>
                </g>
                <g id="Grupo_2563" transform="translate(160.765 154.663)">
                    <path id="Caminho_4726" fill="#414141" d="M56.189 30.066c-.548-.293-.792-.737-1.562-1.807-.284-.471-.642-.956-.969-1.445a8.4 8.4 0 0 0-.769-1 9.172 9.172 0 0 0-.842-.942A21.04 21.04 0 0 0 49.61 22.9a12.383 12.383 0 0 0-1.733-1.109 18.265 18.265 0 0 0-6.206-1.978l-.7-.1-.71-.024a10.719 10.719 0 0 0-1.408 0 15.968 15.968 0 0 0-2.81.292c-.675.208-1.307.434-1.967.681a8.812 8.812 0 0 0-4.433 3.437 4.582 4.582 0 0 0-.258 4.171 3.23 3.23 0 0 0 1.455 1.43 4.155 4.155 0 0 0 1.681.475 4.686 4.686 0 0 0 1.162-.09 4.9 4.9 0 0 0 3.259-2.568 7.8 7.8 0 0 0 .814-5.112 15.128 15.128 0 0 0-2.4-5.512c-.1-.158-.2-.293-.308-.429l-.449-.563-.145-.175c-.4-.482-.816-1.008-1.24-1.472A21.349 21.349 0 0 0 30.3 11.6c-.351-.249-.69-.515-1.05-.748a19.225 19.225 0 0 0-1.787-.984 13.865 13.865 0 0 0-2.634-.932 11.618 11.618 0 0 0-2.343-.4c-.416-.017-.848.019-1.265.041l-1.155.174a10.9 10.9 0 0 0-5.249 2.421 7.267 7.267 0 0 0-2.328 4 7 7 0 0 0-.067 2.392 5.658 5.658 0 0 0 .493 1.788 4.876 4.876 0 0 0 .652.973 4.712 4.712 0 0 0 3.8 1.489 4.017 4.017 0 0 0 2.212-.71 3.293 3.293 0 0 0 1.256-1.821 5.1 5.1 0 0 0-.038-2.64 7.884 7.884 0 0 0-1.227-2.529 7.726 7.726 0 0 0-.94-1.049c-.429-.426-.9-.894-1.382-1.31-1.017-.879-2.1-1.732-3.2-2.538a46.364 46.364 0 0 0-6.482-4.305l-3.9-1.927c-.5-.248-.975-.441-1.417-.7C1.764 2 1.334 1.7.93 1.417.14.9-.148.47.071.226S.919-.01 1.649.01a8.079 8.079 0 0 1 2.625.761l1.491.683c.884.4 1.744.859 2.6 1.317.829.446 1.55.946 2.37 1.412a50.543 50.543 0 0 1 6.709 4.788 24.865 24.865 0 0 1 2.327 1.954 12.207 12.207 0 0 1 2.232 2.892l.186.341c.068.121.143.223.211.334a6.373 6.373 0 0 1 .78 2.036 7.883 7.883 0 0 1 .115 2.305 6.167 6.167 0 0 1-.808 2.541 5.539 5.539 0 0 1-1.948 1.937 7.023 7.023 0 0 1-5.38.61 6.539 6.539 0 0 1-4.155-3.414 8.541 8.541 0 0 1-.738-1.995 9.2 9.2 0 0 1 .353-5.235 8.227 8.227 0 0 1 1.251-2.322 14.891 14.891 0 0 1 1.55-1.607A11.215 11.215 0 0 1 16.541 7.3a13.8 13.8 0 0 1 7.133-1 16.839 16.839 0 0 1 6.7 2.461 15.267 15.267 0 0 1 1.914 1.375c.488.418.935.866 1.4 1.31.546.541 1.106 1.056 1.62 1.619a21.007 21.007 0 0 1 1.679 2.088 22.917 22.917 0 0 1 1.526 2.443 10.537 10.537 0 0 1 .449.961 13.924 13.924 0 0 1 .9 2.482 10.457 10.457 0 0 1 .19 4.833A8.85 8.85 0 0 1 37.6 30.5a6.761 6.761 0 0 1-5.016 1.905 7.12 7.12 0 0 1-2.159-.4 5.508 5.508 0 0 1-2.4-1.628 5.678 5.678 0 0 1-1.249-2.626 6.565 6.565 0 0 1 .052-2.779 9.2 9.2 0 0 1 3.486-5.005 15.1 15.1 0 0 1 6.706-2.517 19.391 19.391 0 0 1 7.068.384 15.678 15.678 0 0 1 2.255.693c.594.251 1.154.556 1.746.815.673.384 1.389.673 2.041 1.089l1.14.738 1.066.854a11.494 11.494 0 0 1 1.071.982 10.671 10.671 0 0 1 1 1.058c.3.358.535.658.759.956l.614 1.006A11.543 11.543 0 0 1 56.86 28a3.472 3.472 0 0 1 .18 1.106c.046.685-.077 1.037-.3 1.177-.131.084-.34-.094-.551-.217z"/>
                </g>
                <path id="Caminho_4727" d="M12.361 7.067a6.241 6.241 0 0 1-10.3 3.965C-2.123 7.59.445-1.028 6.36.1c3.446.659 6.488 3.209 6.001 6.967z" class="cls-2" transform="translate(213.043 179.634)"/>
            </g>
        </g>
    </g>
    <ellipse id="Elipse_551" cx="47.5" cy="6.5" opacity="0.089" rx="47.5" ry="6.5" transform="translate(169.352 382.553)"/>
</svg>
