<svg xmlns="http://www.w3.org/2000/svg" width="138.158" height="50.505" viewBox="0 0 138.158 50.505">
    <defs>
        <style>
            .cls-1{fill:#099a35}.cls-2{fill:#cbcbcb}
        </style>
    </defs>
    <g id="Componente_168_1" transform="translate(0 -.117)">
        <g id="Grupo_2075" transform="translate(0 .117)">
            <path id="Caminho_3520" d="M247.1 282.55a12.19 12.19 0 0 0 0 17.626 12.67 12.67 0 0 0 9.269 3.728h13.037v-11.278a4.385 4.385 0 0 0-4.386-4.386h-7.967v6.265h4.359a1.15 1.15 0 0 1 1.151 1.15v1.982h-6.216a5.766 5.766 0 0 1-4.411-1.9 6.354 6.354 0 0 1 0-8.778 5.758 5.758 0 0 1 4.406-1.9h13.066V278.8h-13.037a12.635 12.635 0 0 0-9.269 3.748" class="cls-1" transform="translate(-243.333 -277.475)"/>
            <path id="Caminho_3521" d="M334.386 287.917a8.975 8.975 0 0 0-3.64-7.094l-.052-.037a9.646 9.646 0 0 0-5.761-1.983h-10.524v6.265h10.525a2.951 2.951 0 0 1 3.248 3.133H320.3a8.3 8.3 0 0 0-5.8 2.221 7 7 0 0 0-2.425 5.353v.595a6.956 6.956 0 0 0 2.425 5.314 8.3 8.3 0 0 0 5.8 2.221h14.226v-13.359h-.083zm-14.125 9.721q-1.348 0-1.348-1.871a1.215 1.215 0 0 1 .412-.915 1.328 1.328 0 0 1 .931-.387l7.925.049v3.124z" class="cls-1" transform="translate(-283.831 -277.475)"/>
            <path id="Caminho_3522" d="M401.312 277.162a11.362 11.362 0 0 0-7.753 2.895 11.823 11.823 0 0 0-15.636.119 9.492 9.492 0 0 0-3.291 7.257v15.5h6.886v-15.5a3.668 3.668 0 0 1 1.257-2.815 4.327 4.327 0 0 1 3.031-1.15 4.387 4.387 0 0 1 3.075 1.15 3.672 3.672 0 0 1 1.256 2.815v15.5h6.886v-15.5a3.67 3.67 0 0 1 1.256-2.815 4.33 4.33 0 0 1 3.032-1.15 4.388 4.388 0 0 1 3.075 1.15 3.673 3.673 0 0 1 1.256 2.815v15.5h6.887v-15.5a9.495 9.495 0 0 0-3.292-7.257 11.327 11.327 0 0 0-7.926-3.014" class="cls-1" transform="translate(-320.69 -276.508)"/>
            <path id="Caminho_3523" d="M552.452 277.414a9.887 9.887 0 0 0-5.881 2.021l-.054.039a9.219 9.219 0 0 0-3.726 7.262l-.057 16.2 6.576.051-.085-9.645.186-6.338a2.929 2.929 0 0 1 .766-2.094 2.819 2.819 0 0 1 2.274-.81h5.435v-6.681z" class="cls-1" transform="translate(-419.729 -276.657)"/>
            <path id="Caminho_3524" d="M486.125 275.616v-.045h-1.813v.03a13.322 13.322 0 0 0 .839 26.607h11.655v-6.245H485.15a6.927 6.927 0 0 1-6.214-3.951h18.872v-3.122c0-7.5-4.759-12.817-11.684-13.274m-7.188 10.151a6.927 6.927 0 0 1 6.214-3.951h.006a5.8 5.8 0 0 1 5.885 3.951z" class="cls-1" transform="translate(-378.037 -275.571)"/>
        </g>
        <g id="Grupo_2074" transform="translate(71.43 34.415)">
            <path id="Caminho_3525" d="M589.292 290.54a1.28 1.28 0 0 1-.835.762 2.162 2.162 0 0 1-1.282.051 1.406 1.406 0 0 1-.936-.694 1.14 1.14 0 0 1-.042-1.066l6.079-13.467a1.475 1.475 0 0 1 .875-.778 1.929 1.929 0 0 1 1.283-.034 1.368 1.368 0 0 1 .977.813l6.344 13.43a1.18 1.18 0 0 1-.02 1.066 1.452 1.452 0 0 1-.915.728 2.25 2.25 0 0 1-1.282-.034 1.362 1.362 0 0 1-.876-.744l-4.762-10.116z" class="cls-2" transform="translate(-585.515 -275.219)"/>
            <path id="Caminho_3528" d="M588.292 290.54a1.282 1.282 0 0 1-.835.762 2.164 2.164 0 0 1-1.282.051 1.4 1.4 0 0 1-.936-.694 1.141 1.141 0 0 1-.042-1.066l6.078-13.467a1.476 1.476 0 0 1 .875-.778 1.93 1.93 0 0 1 1.283-.034 1.367 1.367 0 0 1 .977.813l6.344 13.43a1.18 1.18 0 0 1-.02 1.066 1.451 1.451 0 0 1-.916.728 2.251 2.251 0 0 1-1.282-.034 1.361 1.361 0 0 1-.876-.744l-4.756-10.113z" class="cls-2" transform="translate(-585.085 -275.219)"/>
            <path id="Caminho_3529" d="M621.047 275.545q2.727-.033 5.455-.017t5.454.017a7.69 7.69 0 0 1 2.544.405 6.2 6.2 0 0 1 1.994 1.113 5.12 5.12 0 0 1 1.3 1.67 4.75 4.75 0 0 1 .468 2.108 5.085 5.085 0 0 1-.447 2.109 4.943 4.943 0 0 1-1.283 1.721 6.284 6.284 0 0 1-1.994 1.147 7.4 7.4 0 0 1-2.544.421h-9.281l.072 3.93a1.237 1.237 0 0 1-.488.982 1.922 1.922 0 0 1-2.362 0 1.232 1.232 0 0 1-.488-.98l-.072-13.241a1.187 1.187 0 0 1 .488-.962 2 2 0 0 1 1.181-.423m1.669 2.775v5.144h9.24a3.408 3.408 0 0 0 1.73-.457 2.7 2.7 0 0 0 1-1.066 2.541 2.541 0 0 0 .244-1.117 2.129 2.129 0 0 0-.285-1.117 2.535 2.535 0 0 0-.956-1 3.2 3.2 0 0 0-1.73-.423v.034z" class="cls-2" transform="translate(-599.836 -275.35)"/>
            <path id="Caminho_3530" d="M656.333 275.545q2.727-.033 5.454-.017t5.454.017a7.691 7.691 0 0 1 2.545.405 6.206 6.206 0 0 1 1.995 1.113 5.13 5.13 0 0 1 1.3 1.67 4.757 4.757 0 0 1 .468 2.108 5.086 5.086 0 0 1-.448 2.109 4.942 4.942 0 0 1-1.282 1.721 6.284 6.284 0 0 1-1.995 1.147 7.4 7.4 0 0 1-2.544.421H658l.072 3.93a1.237 1.237 0 0 1-.488.982 1.922 1.922 0 0 1-2.361 0 1.233 1.233 0 0 1-.488-.98l-.072-13.241a1.186 1.186 0 0 1 .488-.962 2 2 0 0 1 1.181-.423M658 278.32v5.144h9.24a3.407 3.407 0 0 0 1.73-.457 2.692 2.692 0 0 0 1-1.066 2.542 2.542 0 0 0 .245-1.117 2.138 2.138 0 0 0-.285-1.117 2.538 2.538 0 0 0-.957-1 3.2 3.2 0 0 0-1.73-.423v.034z" class="cls-2" transform="translate(-615.014 -275.35)"/>
        </g>
    </g>
</svg>
