<svg xmlns="http://www.w3.org/2000/svg" width="29.326" height="24.287" viewBox="0 0 29.326 24.287">
    <defs>
        <style>
            .cls-1{fill:#343434}
        </style>
    </defs>
    <g id="playstation_1_" transform="translate(0 -43.988)">
        <g id="Grupo_2885" transform="translate(0 43.988)">
            <g id="Grupo_2884">
                <path id="Caminho_5196" d="M26.76 59.691a16.124 16.124 0 0 0-7.049-.838 19.478 19.478 0 0 0-3.507.713V49.515a1.072 1.072 0 0 1 .237-.806c.022-.016.069-.051.193-.011h.016c.334.093.643.333.643 1.451v7.321a.437.437 0 0 0 .247.394 4.4 4.4 0 0 0 4.125.171 4.445 4.445 0 0 0 1.976-3.728.437.437 0 0 0-.871-.074 3.629 3.629 0 0 1-1.538 3.042 3.423 3.423 0 0 1-3.064-.086v-7.035c0-.529 0-1.931-1.276-2.292a1.062 1.062 0 0 0-.967.14 1.8 1.8 0 0 0-.6 1.512v17.723l-4.068-1.291V44.957c.254.053.525.114.812.182a.437.437 0 1 0 .2-.851c-.506-.12-.968-.218-1.371-.293a.437.437 0 0 0-.517.43v12.894l-1.63.581c-6.046 2.15-9.08 2.877-8.723 4.82.162.881 1.1 1.624 2.562 2.04a16.483 16.483 0 0 0 7.8.63v.877a.437.437 0 0 0 .3.417l4.942 1.569c.24.076-.19.165 8.98-3.129 1.366-.491 3.468-1.072 4.345-2.178.702-.886.612-2.363-2.197-3.255zM10.387 64.5a15.6 15.6 0 0 1-7.532-.576l-.018-.006c-1.322-.37-1.873-.944-1.949-1.357a.8.8 0 0 1 .388-.755 7.679 7.679 0 0 1 1.379-.765l2.839.9c-.817.316-.987.72-.982 1.007.012.8 1.217.974 2.02.974a7.579 7.579 0 0 0 3.021-.693l.834.265V64.5zm0-2.506l-.993.361a7.221 7.221 0 0 1-2.862.691 3.23 3.23 0 0 1-1.032-.139 51.86 51.86 0 0 1 4.887-1.788V62zm0-1.806l-3.536 1.267-2.9-.92 5.908-2.1.527.167v1.589zm5.822.293l.052-.018 3.044.966-3.1 1.091zm0 2.968l4.623-1.629.39-.137a4.969 4.969 0 0 1 2.677-.148l.056.02a1.977 1.977 0 0 1-.375.173l-7.38 2.627v-.9zm0 3.761v-1.87l2.764.877zm5.818-2.09l-1.7.61-2.848-.9 5.9-2.1 2.821.9zm6.247-2.72a3.159 3.159 0 0 1-.878.681l-2.825-.9c.7-.559.531-1.645-1.647-1.645a6.208 6.208 0 0 0-2.25.408l-2.844-.9a19.36 19.36 0 0 1 1.976-.325 15.328 15.328 0 0 1 6.655.791l.023.008c1.036.331 2.462 1.035 1.79 1.882z" class="cls-1" transform="translate(0 -43.988)"/>
            </g>
        </g>
        <g id="Grupo_2887" transform="translate(13.777 44.806)">
            <g id="Grupo_2886">
                <path id="Caminho_5197" d="M250.378 65.658c-.319-3.252-1.9-4.962-5.839-6.31-1-.337-2.284-.731-3.44-1.054a.437.437 0 1 0-.235.842c1.142.319 2.411.708 3.393 1.04 3.594 1.23 4.967 2.687 5.25 5.568a.437.437 0 0 0 .435.395h.043a.437.437 0 0 0 .393-.481z" class="cls-1" transform="translate(-240.545 -58.277)"/>
            </g>
        </g>
    </g>
</svg>
