<svg xmlns="http://www.w3.org/2000/svg" width="22.797" height="22.797" viewBox="0 0 22.797 22.797">
    <defs>
        <style>
            .cls-1{fill:#343434}
        </style>
    </defs>
    <g id="xbox" transform="translate(0 -.002)">
        <g id="Grupo_2889" transform="translate(6.104 .002)">
            <g id="Grupo_2888">
                <path id="Caminho_5198" d="M147.5 1.205a11.421 11.421 0 0 0-10.142-.031.456.456 0 0 0 .043.837 19.763 19.763 0 0 1 4.8 2.578.455.455 0 0 0 .54 0 19.745 19.745 0 0 1 4.719-2.549.456.456 0 0 0 .043-.834zm-5.032 2.453a20.572 20.572 0 0 0-3.724-2.091 10.585 10.585 0 0 1 7.384.028 20.549 20.549 0 0 0-3.664 2.063z" class="cls-1" transform="translate(-137.1 -.002)"/>
            </g>
        </g>
        <g id="Grupo_2891" transform="translate(0 2.375)">
            <g id="Grupo_2890">
                <path id="Caminho_5199" d="M18.55 53.444a.456.456 0 0 0-.523-.035 55.3 55.3 0 0 0-4.694 3.191.456.456 0 0 0-.045.687 19.171 19.171 0 0 1 1.845 2.116 20.2 20.2 0 0 1 3.984 8.045 26.588 26.588 0 0 0-7.353-9.11.455.455 0 0 0-.592 0 26.573 26.573 0 0 0-7.357 9.12A20.143 20.143 0 0 1 7.8 59.407a19.118 19.118 0 0 1 1.845-2.116.456.456 0 0 0-.045-.691 55.349 55.349 0 0 0-4.77-3.239.457.457 0 0 0-.52.033 11.4 11.4 0 0 0-1.463 16.463.454.454 0 0 0 .187.127.453.453 0 0 0 .11.2 11.3 11.3 0 0 0 8.256 3.535 11.435 11.435 0 0 0 8.369-3.659.454.454 0 0 0 .115-.235.455.455 0 0 0 .219-.143 11.4 11.4 0 0 0-1.553-16.238zM2.773 68.285a10.488 10.488 0 0 1 1.86-13.976c1.017.623 2.442 1.547 4 2.709a20.02 20.02 0 0 0-1.559 1.842c-3.168 4.223-4.097 7.424-4.301 9.425zm8.627 4.521a10.39 10.39 0 0 1-7.42-3.074c.9-3.389 3.416-6.9 7.488-10.441 4.026 3.5 6.533 6.974 7.458 10.33a10.523 10.523 0 0 1-7.526 3.185zm4.464-13.947a20.1 20.1 0 0 0-1.564-1.841c1.53-1.137 2.925-2.045 3.923-2.659a10.488 10.488 0 0 1 1.92 13.75c-.243-1.98-1.192-5.131-4.28-9.25z" class="cls-1" transform="translate(0 -53.295)"/>
            </g>
        </g>
    </g>
</svg>
